<mxfile host="app.diagrams.net" modified="2023-11-15T01:08:31.415Z" agent="Mozilla/5.0 (Windows NT 10.0; Win64; x64) AppleWebKit/537.36 (KHTML, like Gecko) Chrome/119.0.0.0 Safari/537.36" version="22.1.1" etag="i3KEUUQRPPa8DzzsqUFk" type="github">
  <diagram name="Page-1" id="Xbu3Jf5AUAYx8IEPsyUF">
    <mxGraphModel>
      <root>
        <mxCell id="0" />
        <mxCell id="1" parent="0" />
      </root>
    </mxGraphModel>
  </diagram>
</mxfile>
